<?xml version="1.0" standalone="no"?>
<!DOCTYPE svg PUBLIC "-//W3C//DTD SVG 20010904//EN"
 "http://www.w3.org/TR/2001/REC-SVG-20010904/DTD/svg10.dtd">
<svg version="1.0" xmlns="http://www.w3.org/2000/svg"
 width="700.000000pt" height="700.000000pt" viewBox="0 0 700.000000 700.000000"
 preserveAspectRatio="xMidYMid meet">
<metadata>
Created by potrace 1.14, written by Peter Selinger 2001-2017
</metadata>
<g transform="translate(0.000000,700.000000) scale(0.100000,-0.100000)"
fill="#000000" stroke="none">
<path d="M3375 6847 c-27 -8 -72 -25 -100 -39 -42 -21 -56 -23 -85 -16 -79 22
-220 -14 -271 -68 -17 -18 -33 -24 -65 -24 -24 0 -65 -5 -92 -11 -47 -10 -52
-9 -94 21 -92 65 -206 72 -309 19 -30 -15 -44 -17 -59 -9 -55 29 -190 15 -288
-31 -71 -33 -75 -36 -136 -95 -83 -81 -111 -196 -71 -297 7 -17 6 -17 -27 -4
-97 41 -226 -28 -279 -147 -19 -44 -21 -61 -15 -133 6 -80 5 -85 -19 -109 -42
-42 -59 -84 -59 -149 0 -67 18 -110 65 -155 34 -32 97 -64 147 -75 18 -4 36
-13 38 -20 8 -19 -65 -170 -108 -226 -51 -66 -60 -86 -53 -118 11 -53 77 -66
119 -24 30 30 108 143 127 186 8 18 25 31 51 39 54 16 120 77 151 139 25 51
27 52 109 81 45 16 98 39 118 52 19 12 55 35 80 51 25 15 63 42 85 60 22 18
67 40 100 50 82 23 110 40 169 95 l51 48 50 -9 c56 -11 94 -7 145 15 19 8 60
17 90 21 68 8 170 30 232 49 25 8 48 12 51 9 11 -10 174 -3 217 9 38 12 51 12
85 0 28 -10 61 -12 108 -8 38 4 85 2 105 -3 41 -11 79 -19 132 -26 19 -3 46
-8 59 -11 14 -3 56 -5 94 -5 57 0 75 -4 106 -25 21 -14 60 -28 87 -33 27 -4
81 -22 119 -38 39 -17 88 -35 110 -39 22 -4 56 -20 75 -35 19 -15 52 -32 73
-37 21 -6 75 -35 120 -65 178 -119 211 -138 263 -153 45 -13 57 -22 77 -57 35
-58 92 -114 156 -150 29 -16 61 -44 71 -61 40 -68 106 -156 127 -167 46 -25
112 23 99 73 -3 13 -24 48 -47 78 -43 56 -103 173 -115 223 -5 23 -3 27 15 27
34 0 134 49 169 83 18 18 40 46 48 64 20 40 25 108 12 142 -5 14 -11 58 -12
96 -3 87 -32 151 -92 201 -111 90 -228 92 -327 4 -37 -32 -47 -30 -47 7 0 13
-7 38 -16 55 -14 26 -14 38 -5 64 48 133 -1 279 -112 336 -49 25 -134 30 -194
12 -37 -11 -45 -11 -49 1 -3 7 -22 24 -42 38 -130 85 -285 55 -337 -66 l-11
-28 -39 31 c-55 44 -148 66 -208 49 -24 -7 -29 -5 -38 19 -19 54 -35 75 -70
99 -46 30 -123 43 -175 28 -38 -10 -40 -9 -76 26 -21 20 -59 45 -85 54 -63 22
-213 28 -278 12z m233 -147 c49 -22 55 -32 55 -85 0 -61 -5 -65 -66 -44 -53
18 -141 20 -199 4 -25 -6 -28 -5 -28 18 0 13 -7 41 -15 60 l-15 36 47 15 c66
19 173 17 221 -4z m-490 -81 l-11 -40 -27 33 c-28 33 -28 33 -7 40 51 15 56
11 45 -33z m-565 -5 c16 -5 15 -8 -5 -34 -13 -16 -26 -29 -29 -29 -10 -2 -50
59 -44 69 5 8 39 6 78 -6z m1362 -18 c15 -23 16 -39 1 -102 -5 -26 -40 -95
-75 -149 l-25 -40 -7 40 c-18 95 -4 222 28 257 23 26 60 22 78 -6z m-1684 -5
c13 -1 17 -16 21 -78 8 -114 59 -242 143 -358 39 -53 39 -56 8 -51 -15 2 -31
5 -35 5 -4 1 -12 26 -18 56 -16 77 -73 160 -129 187 -58 28 -125 27 -193 -4
-74 -34 -71 -34 -87 -2 -42 85 30 184 170 233 42 15 61 17 120 12z m585 -98
c-5 -102 31 -228 81 -285 15 -16 10 -58 -6 -58 -13 0 -98 49 -110 64 -8 10 -9
26 -2 57 9 41 8 208 -2 254 -3 14 2 22 17 27 12 3 22 6 23 7 1 1 1 -29 -1 -66z
m1789 17 c13 -10 8 -20 -30 -62 -24 -27 -59 -80 -77 -116 l-33 -67 -3 77 c-3
87 10 150 38 178 15 15 25 17 54 10 20 -4 43 -13 51 -20z m-1614 -29 c1 -9 2
-28 3 -43 2 -15 0 -45 -4 -65 l-7 -38 -12 30 c-13 32 -21 130 -13 154 4 11 8
10 19 -5 7 -10 13 -25 14 -33z m-571 -53 c21 -46 28 -87 9 -56 -14 25 -39 98
-33 98 3 0 14 -19 24 -42z m230 -20 c-1 -35 -4 -48 -9 -38 -17 28 -17 90 -1
90 6 0 10 -24 10 -52z m2278 29 c24 -20 41 -71 35 -108 -6 -41 -9 -45 -25 -31
-7 6 -43 10 -79 9 -53 -2 -73 -7 -106 -29 -59 -39 -95 -117 -101 -219 -3 -44
-9 -79 -14 -79 -11 0 -47 78 -48 103 0 9 8 25 18 35 60 61 145 209 160 278 7
34 13 40 47 51 44 13 90 10 113 -10z m-1369 -3 c6 -5 1 -19 -12 -34 -28 -32
-108 -100 -118 -100 -7 0 -18 35 -25 80 -4 28 3 42 30 57 22 12 113 10 125 -3z
m-369 -125 c0 -12 -39 -81 -55 -98 -7 -7 -20 -11 -28 -8 -13 5 -12 15 4 74 10
37 21 81 24 97 l6 30 25 -43 c13 -24 24 -47 24 -52z m998 12 c-50 -65 -56 -70
-62 -55 -3 9 -6 27 -6 40 0 27 31 45 62 36 15 -4 16 -7 6 -21z m-222 -183
c-18 -13 -63 -9 -75 6 -10 12 -9 20 4 40 10 14 21 26 25 26 5 0 12 10 16 23 6
19 10 14 24 -33 11 -38 13 -57 6 -62z m-1787 71 c10 -11 21 -29 24 -39 4 -17
2 -17 -32 -3 -66 28 -92 44 -86 53 11 18 73 11 94 -11z m1508 -21 c-15 -9 -19
-4 -11 16 5 14 9 15 15 5 5 -8 3 -17 -4 -21z m-1077 -22 c0 -8 -4 -18 -10 -21
-5 -3 -10 3 -10 14 0 12 5 21 10 21 6 0 10 -6 10 -14z m-853 -28 c45 -41 89
-184 97 -315 3 -59 1 -73 -10 -73 -8 0 -17 6 -19 13 -50 143 -90 200 -156 217
-29 8 -40 17 -45 36 -10 38 12 99 46 128 33 27 51 26 87 -6z m3133 21 c0 -15
-89 -104 -96 -97 -10 11 17 87 34 97 23 14 62 14 62 0z m-553 -76 c-35 -20
-42 -15 -17 12 17 19 26 22 31 13 5 -8 0 -17 -14 -25z m-2182 -58 c66 -24 69
-27 61 -70 -8 -41 -16 -41 -92 -3 -56 27 -100 69 -118 112 l-15 36 57 -29 c31
-15 80 -36 107 -46z m3225 -15 l25 -20 -28 0 c-103 -1 -184 -107 -201 -263 -5
-44 -10 -52 -29 -44 -16 6 -12 97 8 163 18 62 71 147 104 167 35 22 90 21 121
-3z m-365 -139 c-5 -9 -12 -53 -19 -114 -4 -39 -10 -41 -53 -21 -69 33 -80 55
-35 73 15 7 43 25 62 41 34 29 57 39 45 21z m-2976 -36 c22 -13 51 -27 66 -31
35 -9 28 -23 -31 -56 -70 -39 -76 -35 -78 45 -1 37 -1 67 1 67 2 0 21 -11 42
-25z m3362 -14 c-12 -21 -71 -74 -77 -68 -7 6 18 71 30 79 6 4 21 8 34 8 19 0
21 -3 13 -19z m-3774 -82 c69 -72 72 -79 39 -79 -70 0 -141 72 -117 118 6 12
13 22 16 22 2 0 30 -27 62 -61z"/>
<path d="M3318 5875 c-2 -1 -37 -5 -78 -9 -94 -8 -127 -13 -215 -32 -38 -8
-79 -16 -90 -19 -58 -11 -211 -61 -299 -97 -463 -190 -848 -524 -1128 -978
-68 -110 -73 -120 -133 -240 -108 -217 -226 -569 -260 -770 -3 -19 -8 -42 -10
-50 -2 -8 -7 -35 -10 -60 -3 -25 -8 -58 -12 -75 -3 -16 -7 -43 -8 -60 -2 -16
-7 -73 -11 -125 -17 -180 -11 -577 11 -745 14 -107 38 -256 47 -290 5 -22 12
-49 14 -60 10 -56 87 -322 104 -360 5 -11 21 -51 36 -90 43 -115 148 -327 217
-442 339 -561 852 -954 1432 -1093 125 -31 151 -36 225 -46 24 -3 56 -8 70
-11 51 -9 447 -11 515 -2 126 15 155 20 204 29 633 120 1189 513 1553 1099
208 334 377 813 423 1196 4 28 8 61 11 75 31 190 25 708 -10 930 -4 25 -10 59
-12 75 -14 89 -59 290 -86 378 -67 227 -217 571 -308 709 -22 33 -40 62 -40
64 0 8 -118 174 -164 229 -183 224 -389 405 -623 547 -368 223 -739 325 -1190
326 -95 0 -173 -1 -175 -3z m442 -149 c14 -2 45 -7 70 -11 80 -11 104 -16 140
-25 19 -5 44 -11 55 -13 106 -19 286 -87 447 -167 537 -270 964 -793 1177
-1440 40 -123 85 -291 96 -360 3 -19 9 -55 15 -80 10 -48 16 -93 25 -180 4
-30 9 -68 12 -85 9 -53 11 -517 2 -605 -13 -129 -33 -277 -44 -330 -3 -14 -7
-36 -9 -50 -10 -64 -62 -253 -112 -410 -3 -8 -5 -16 -5 -17 0 -2 -19 -49 -43
-105 -253 -602 -620 -1017 -1122 -1271 -192 -97 -426 -175 -579 -193 -22 -3
-45 -7 -52 -9 -78 -27 -548 -26 -688 1 -11 2 -56 11 -99 19 -85 16 -187 44
-276 76 -81 29 -84 30 -223 98 -502 246 -893 686 -1130 1271 -71 176 -149 444
-172 590 -4 25 -9 54 -11 64 -7 38 -24 172 -31 251 -10 106 -10 484 0 610 16
192 83 531 134 675 51 148 67 189 84 227 10 24 19 46 19 50 0 16 134 274 188
361 183 298 426 551 701 731 86 57 319 180 366 194 11 3 52 17 90 31 125 45
358 95 505 109 47 4 439 -1 470 -7z"/>
<path d="M4193 1780 c-342 -236 -609 -352 -813 -353 -96 0 -159 17 -229 64
-48 31 -78 36 -103 17 -117 -94 130 -239 379 -222 142 10 351 83 553 195 108
59 333 206 373 243 31 29 35 64 10 95 -35 42 -62 36 -170 -39z"/>
<path d="M791 3479 c-78 -52 -133 -116 -175 -204 -44 -91 -56 -150 -51 -260 6
-151 79 -292 198 -383 65 -50 89 -62 121 -62 30 0 67 44 62 74 -3 11 -5 24 -5
28 -1 3 -30 27 -65 52 -142 101 -203 257 -162 415 26 102 79 175 168 232 74
48 86 82 43 124 -34 35 -63 31 -134 -16z"/>
<path d="M6075 3495 c-45 -44 -31 -75 67 -142 102 -69 166 -207 154 -331 -8
-86 -14 -107 -47 -164 -39 -65 -75 -104 -130 -138 -61 -37 -74 -60 -59 -105
24 -74 114 -50 224 61 98 97 146 207 151 344 5 105 -7 165 -50 255 -42 87 -99
152 -177 205 -70 46 -99 50 -133 15z"/>
</g>
</svg>
