<svg width="100" height="80" viewBox="0 0 100 80" fill="none" xmlns="http://www.w3.org/2000/svg">
<path fill-rule="evenodd" clip-rule="evenodd" d="M87.2656 9.15235C87.4943 10.8532 87.5 13.1296 87.5 16.5V65H12.5V16.5C12.5 13.1296 12.5057 10.8532 12.7344 9.15235C12.9534 7.52338 13.3352 6.80157 13.8184 6.31837C14.3016 5.83516 15.0234 5.45339 16.6523 5.23438C18.3532 5.00571 20.6295 5.00001 24 5.00001H76C79.3705 5.00001 81.6468 5.00571 83.3477 5.23438C84.9766 5.45339 85.6984 5.83516 86.1816 6.31837C86.6648 6.80157 87.0466 7.52338 87.2656 9.15235ZM7.5 65V16.5L7.5 16.3189C7.4999 13.171 7.49981 10.5582 7.77832 8.48634C8.07187 6.30292 8.71518 4.34928 10.2822 2.78223C11.8493 1.21519 13.8029 0.571881 15.9863 0.278328C18.0582 -0.000181181 20.671 -9.72852e-05 23.8189 3.83442e-06L24 7.70634e-06H76L76.1811 3.83468e-06C79.329 -9.72809e-05 81.9418 -0.000181206 84.0137 0.278328C86.1971 0.571881 88.1507 1.21519 89.7178 2.78223C91.2848 4.34928 91.9281 6.30292 92.2217 8.48634C92.5002 10.5582 92.5001 13.171 92.5 16.319V16.5V65H100V74C100 77.3137 97.3137 80 94 80H6C2.68629 80 0 77.3137 0 74V65H7.5ZM5 70H95V74C95 74.5523 94.5523 75 94 75H6C5.44772 75 5 74.5523 5 74V70Z" fill="#000000"/>
</svg>
