<svg width="100" height="80" viewBox="0 0 100 80" fill="none" xmlns="http://www.w3.org/2000/svg">
<path fill-rule="evenodd" clip-rule="evenodd" d="M95 16.5C95 13.1296 94.9943 10.8532 94.7656 9.15235C94.5466 7.52337 94.1648 6.80157 93.6816 6.31837C93.1984 5.83516 92.4766 5.45339 90.8477 5.23438C89.1468 5.00571 86.8705 5.00001 83.5 5.00001H16.5C13.1296 5.00001 10.8532 5.00571 9.15235 5.23438C7.52338 5.45339 6.80157 5.83516 6.31837 6.31837C5.83516 6.80157 5.45339 7.52337 5.23438 9.15235C5.00571 10.8532 5.00001 13.1296 5.00001 16.5V48.5C5.00001 51.8705 5.00571 54.1468 5.23438 55.8477C5.45339 57.4766 5.83516 58.1984 6.31837 58.6816C6.80157 59.1649 7.52338 59.5466 9.15235 59.7656C10.8532 59.9943 13.1296 60 16.5 60H83.5C86.8705 60 89.1468 59.9943 90.8477 59.7656C92.4766 59.5466 93.1984 59.1649 93.6816 58.6816C94.1648 58.1984 94.5466 57.4766 94.7656 55.8477C94.9943 54.1468 95 51.8705 95 48.5V16.5ZM100 48.5V48.681C100 51.829 100 54.4418 99.7217 56.5137C99.4281 58.6971 98.7848 60.6507 97.2178 62.2178C95.6507 63.7848 93.6971 64.4281 91.5137 64.7217C89.4419 65.0002 86.8291 65.0001 83.6812 65H83.5H62.5V75H70C71.3807 75 72.5 76.1193 72.5 77.5C72.5 78.8807 71.3807 80 70 80H30C28.6193 80 27.5 78.8807 27.5 77.5C27.5 76.1193 28.6193 75 30 75H37.5V65H16.5H16.3188C13.1709 65.0001 10.5582 65.0002 8.48634 64.7217C6.30292 64.4281 4.34928 63.7848 2.78223 62.2178C1.21519 60.6507 0.571881 58.6971 0.278328 56.5137C-0.00018118 54.4418 -9.72803e-05 51.829 3.83498e-06 48.6811L7.70664e-06 48.5V16.5L3.8346e-06 16.3189C-9.72877e-05 13.171 -0.000181219 10.5582 0.278328 8.48634C0.571881 6.30292 1.21519 4.34928 2.78223 2.78223C4.34928 1.21519 6.30292 0.571881 8.48634 0.278328C10.5582 -0.00018146 13.171 -9.75643e-05 16.3189 3.85095e-06L16.5 7.42723e-06H83.5L83.6811 3.85095e-06C86.8291 -9.756e-05 89.4418 -0.000181485 91.5137 0.278328C93.6971 0.571881 95.6507 1.21519 97.2178 2.78223C98.7848 4.34928 99.4281 6.30292 99.7217 8.48634C100 10.5582 100 13.171 100 16.319V16.5V48.5ZM42.5 75H57.5V65H42.5V75Z" fill="#000000"/>
</svg>
