<?xml version="1.0" encoding="UTF-8"?>
<svg width="600px" height="110px" viewBox="0 0 600 110" version="1.1" xmlns="http://www.w3.org/2000/svg" xmlns:xlink="http://www.w3.org/1999/xlink">
    <title>Bartowski beeldmerk</title>
    <g id="Logo-BARTOWSKI" stroke="none" stroke-width="1" fill="none" fill-rule="evenodd">
        <g id="Group" transform="translate(0.000000, 13.000000)" fill="#000000" fill-rule="nonzero">
            <g id="Combined-Shape">
                <path d="M475.882353,2 C479.657034,2 483.593123,2.52222731 487.689777,3.56473696 C491.786928,4.60737286 495.716454,6.13780658 499.476735,8.15525474 C499.955993,8.41238362 500.141876,9.00539665 499.895146,9.49008976 L499.895146,9.49008976 L492.187942,24.6306707 C491.898925,25.1984364 491.159765,25.3547826 490.665601,24.9526743 C488.634642,23.3000522 486.615211,22.0834225 484.608579,21.2984098 C482.612977,20.5177122 480.693594,20.1301613 478.846662,20.1301613 C476.548168,20.1301613 474.716614,20.662698 473.320997,21.7109756 C471.989104,22.7113883 471.348976,23.9668483 471.348976,25.5624343 C471.348976,26.6387616 471.655884,27.4840218 472.270008,28.150317 C472.971377,28.9112703 473.907855,29.5811829 475.085722,30.1558738 C476.31545,30.7558675 477.7102,31.2796808 479.269979,31.7259981 C480.897798,32.1917848 482.509086,32.6908662 484.103831,33.2232428 C490.591089,35.3888954 495.375387,38.3046892 498.439306,41.9937844 C501.529243,45.7142065 503.067085,50.542292 503.067085,56.4373443 C503.067085,60.3909465 502.400743,63.9843067 501.064144,67.2106703 C499.722376,70.4495095 497.757293,73.2289087 495.174863,75.5393281 C492.600673,77.8423764 489.452781,79.6242799 485.739414,80.8866652 C482.040479,82.1441443 477.864681,82.7706039 473.214475,82.7706039 C463.587689,82.7706039 454.660181,79.9027823 446.457512,74.1792629 C446.042934,73.8899856 445.909449,73.3368006 446.146481,72.8902891 L446.146481,72.8902891 L454.446547,57.254918 C454.750228,56.6828541 455.509306,56.5459789 455.993671,56.9759441 C458.818673,59.4836674 461.598805,61.3398597 464.330975,62.5489024 C467.039574,63.7475148 469.702148,64.3435684 472.325182,64.3435684 C475.254034,64.3435684 477.367118,63.6924167 478.706151,62.4369796 C480.059872,61.1677717 480.712161,59.7778462 480.712161,58.2185891 C480.712161,57.2396634 480.544378,56.4134957 480.217524,55.7315326 C479.89634,55.0613982 479.343034,54.4241445 478.54252,53.8228612 C477.697071,53.1878266 476.570624,52.5851262 475.164648,52.021895 C475.031429,51.968528 474.895611,51.914606 474.757211,51.8601355 L474.757211,51.8601355 L473.895992,51.5267812 L472.973734,51.1805714 L471.991346,50.8218153 L470.949737,50.4508225 L469.849814,50.0679023 C467.323707,49.2689914 464.847191,48.3867662 462.420316,47.4212234 C459.917289,46.4253836 457.683357,45.1002306 455.722618,43.4466128 C453.734428,41.7698444 452.13281,39.660219 450.920075,37.1270188 C449.696612,34.5714094 449.092862,31.3753866 449.092862,27.5415952 C449.092862,23.7222526 449.725396,20.2466712 450.994301,17.1211862 C452.264402,13.9927543 454.054654,11.3033607 456.36214,9.06140807 C458.671266,6.81786207 461.491244,5.0785714 464.813033,3.84389921 C468.123893,2.61328948 471.815146,2 475.882353,2 Z M475.882353,4 C472.044735,4 468.588709,4.57420707 465.509835,5.71859041 C462.441891,6.8589113 459.860239,8.45120814 457.755838,10.4958441 C455.649796,12.5420734 454.014625,14.9984981 452.847404,17.873521 C451.678988,20.7514908 451.092862,23.9720704 451.092862,27.5415952 C451.092862,31.0966711 451.641899,34.003061 452.72401,36.2634099 C453.816849,38.5461679 455.245413,40.4278503 457.012015,41.9177393 C458.806068,43.430779 460.853916,44.6455491 463.159658,45.5628982 C465.541551,46.5105443 467.972614,47.3765778 470.476869,48.1689119 L470.476869,48.1689119 L471.603627,48.5609903 L473.177673,49.1248178 C473.344832,49.1858484 473.509414,49.2463406 473.671419,49.3062949 L473.671419,49.3062949 L474.612543,49.659569 L475.491877,49.9999562 L475.908386,50.1653248 C477.46672,50.7895901 478.744657,51.4733443 479.743667,52.2237223 C480.787612,53.0078517 481.551776,53.8879547 482.021074,54.867121 C482.484703,55.8344586 482.712161,56.9544658 482.712161,58.2185891 C482.712161,60.3537658 481.816423,62.2624417 480.074087,63.8960031 C478.317064,65.5433354 475.720189,66.3435684 472.325182,66.3435684 C469.414838,66.3435684 466.478161,65.6861533 463.521636,64.3778286 C460.933735,63.2326277 458.331889,61.5640168 455.713974,59.3750057 L455.713974,59.3750057 L455.625,59.3 L448.332,73.038 L448.679303,73.2708926 C456.068986,78.1550882 464.031449,80.650307 472.587372,80.7663581 L472.587372,80.7663581 L473.214475,80.7706039 C477.654816,80.7706039 481.614401,80.1765809 485.095682,78.9930949 C488.562531,77.814515 491.475005,76.165873 493.84133,74.0487952 C496.199416,71.9390886 497.989124,69.4077395 499.216424,66.4452078 C500.448893,63.4702006 501.067085,60.1364976 501.067085,56.4373443 C501.067085,50.9852075 499.673555,46.6101948 496.900747,43.2716096 C494.101921,39.9016976 489.630986,37.1768829 483.470525,35.1203256 C481.90334,34.5971497 480.319761,34.1066507 478.719777,33.6488289 C477.051752,33.1715378 475.548066,32.6068126 474.208726,31.9533377 C472.817525,31.27456 471.678986,30.460102 470.799391,29.5057826 C469.83255,28.456805 469.348976,27.1249882 469.348976,25.5624343 C469.348976,23.3316425 470.289812,21.4864171 472.119849,20.1118367 C473.886162,18.7851213 476.138768,18.1301613 478.846662,18.1301613 C480.952143,18.1301613 483.116919,18.5672609 485.337224,19.435864 C487.073082,20.1149475 488.80104,21.0773965 490.521712,22.3210888 L490.521712,22.3210888 L490.955,22.642 L497.663,9.463 L497.07563,9.16631971 C494.147403,7.71378672 491.116559,6.56171807 487.982269,5.70971269 L487.982269,5.70971269 L487.196541,5.50296243 C483.256624,4.50033915 479.485509,4 475.882353,4 Z M599,4.07811895 C599.552285,4.07811895 600,4.5258342 600,5.07811895 L600,5.07811895 L600,79.6924849 C600,80.2447697 599.552285,80.6924849 599,80.6924849 L599,80.6924849 L579.633179,80.6924849 C579.080894,80.6924849 578.633179,80.2447697 578.633179,79.6924849 L578.633179,79.6924849 L578.633179,5.07811895 C578.633179,4.5258342 579.080894,4.07811895 579.633179,4.07811895 L579.633179,4.07811895 Z M29.8526107,4.07811895 C36.9366406,4.07811895 42.3823866,5.8040329 46.1445942,9.29276678 C49.9215523,12.795179 51.8003966,17.8129213 51.8003966,24.2759797 C51.8003966,28.1933464 51.0899296,31.4733226 49.6525346,34.1066349 C48.6468813,35.9489952 47.2763914,37.5892214 45.5469527,39.0260631 L45.1708667,39.3308443 L45.029,39.439 L45.5164114,39.5748209 C46.8776247,39.965858 48.1254174,40.4389966 49.2595315,40.9950789 L49.7386197,41.2384805 L50.1527865,41.4633758 C52.2108962,42.616243 53.8958755,44.0400699 55.1994238,45.7336881 C56.4993294,47.4225733 57.4309492,49.3238068 57.9917768,51.4300547 C58.5416526,53.4951718 58.8159286,55.692661 58.8159286,58.020673 C58.8159286,61.6533549 58.1791659,64.8936353 56.899673,67.7335078 C55.6195401,70.5748009 53.8150177,72.9728433 51.4916758,74.9176444 C49.1751185,76.8567663 46.36733,78.3058882 43.0771471,79.2669597 C40.0231791,80.1590321 36.6234473,80.6313718 32.8787802,80.6869296 L32.1252479,80.6924849 L1,80.6924849 C0.487164161,80.6924849 0.0644928393,80.3064447 0.00672773133,79.809106 L0,79.6924849 L0,5.07811895 C0,4.56528311 0.38604019,4.14261179 0.883378875,4.08484668 L1,4.07811895 L29.8526107,4.07811895 Z M109.790152,4.07811895 C110.163852,4.07811895 110.50256,4.28595895 110.674105,4.6104765 L110.724914,4.72284535 L139.083474,79.3372113 C139.31838,79.9552738 138.900254,80.6147555 138.263298,80.6861236 L138.148711,80.6924849 L117.497356,80.6924849 C117.11284,80.6924849 116.766549,80.4726288 116.600085,80.1340478 L116.551451,80.016929 L112.336,67.728 L86.097,67.728 L81.8834462,80.016929 C81.7725537,80.3402319 81.5071438,80.5786059 81.1866686,80.6610234 L81.0641034,80.6844808 L80.9375413,80.6924849 L60.2861864,80.6924849 C59.6249889,80.6924849 59.1570794,80.06734 59.3166605,79.446583 L59.351424,79.3372113 L87.7099832,4.72284535 C87.8427488,4.37352492 88.1573641,4.13075288 88.5216562,4.08569167 L88.6447455,4.07811895 L109.790152,4.07811895 Z M174.807336,4.07811895 C179.076695,4.07811895 182.823119,4.70914136 186.043209,5.97851884 C189.270269,7.25064343 191.94558,8.99651712 194.058653,11.2168268 C196.162109,13.4270308 197.749842,15.9850283 198.817864,18.8833516 C199.880456,21.7669369 200.411104,24.8527263 200.411104,28.1353434 C200.411104,34.0182214 198.98029,38.8350166 196.101066,42.5523366 C193.578722,45.8088949 190.020552,48.1380878 185.45377,49.5426128 L184.916,49.701 L207.418178,79.0844642 C207.875087,79.681072 207.531919,80.5179565 206.846049,80.6687411 L206.734973,80.6867125 L206.624256,80.6924849 L182.514541,80.6924849 C182.217031,80.6924849 181.937358,80.5602121 181.748777,80.3356277 L181.673748,80.2338419 L165.037,54.395 L165.037013,79.6924849 C165.037013,80.1658718 164.708079,80.5624322 164.266303,80.6660742 L164.153634,80.6857572 L164.037013,80.6924849 L144.670192,80.6924849 C144.157356,80.6924849 143.734685,80.3064447 143.676919,79.809106 L143.670192,79.6924849 L143.670192,5.07811895 C143.670192,4.56528311 144.056232,4.14261179 144.553571,4.08484668 L144.670192,4.07811895 L174.807336,4.07811895 Z M258.894911,4.07811895 C259.447196,4.07811895 259.894911,4.5258342 259.894911,5.07811895 L259.894911,5.07811895 L259.894911,21.5051544 C259.894911,22.0574392 259.447196,22.5051544 258.894911,22.5051544 L258.894911,22.5051544 L243.986,22.505 L243.986451,79.6924849 C243.986451,80.2053207 243.600411,80.6279921 243.103072,80.6857572 L243.103072,80.6857572 L242.986451,80.6924849 L223.61963,80.6924849 C223.067345,80.6924849 222.61963,80.2447697 222.61963,79.6924849 L222.61963,79.6924849 L222.619,22.505 L207.71117,22.5051544 C207.198334,22.5051544 206.775663,22.1191142 206.717898,21.6217755 L206.717898,21.6217755 L206.71117,21.5051544 L206.71117,5.07811895 C206.71117,4.5258342 207.158885,4.07811895 207.71117,4.07811895 L207.71117,4.07811895 Z M359.483807,4.07811895 C359.936901,4.07811895 360.333378,4.38275997 360.450072,4.82056882 L360.450072,4.82056882 L372.428,49.759 L387.188619,4.76641148 C387.311087,4.39309212 387.638981,4.12969843 388.022291,4.08489395 L388.022291,4.08489395 L388.138797,4.07811895 L397.624587,4.07811895 C398.05677,4.07811895 398.44005,4.35576018 398.574765,4.76641148 L398.574765,4.76641148 L413.334,49.759 L425.313312,4.82056882 C425.419398,4.42256078 425.756709,4.13460878 426.157577,4.0855432 L426.157577,4.0855432 L426.279577,4.07811895 L446.535691,4.07811895 C447.204773,4.07811895 447.685113,4.72245254 447.494053,5.36367533 L447.494053,5.36367533 L425.261733,79.9780413 C425.135431,80.4019248 424.745671,80.6924849 424.303371,80.6924849 L424.303371,80.6924849 L406.517515,80.6924849 C406.081077,80.6924849 405.69505,80.4094435 405.563803,79.9932074 L405.563803,79.9932074 L392.881,39.774 L380.199581,79.9932074 C380.080266,80.3716038 379.750388,80.639922 379.363494,80.6855799 L379.363494,80.6855799 L379.245869,80.6924849 L361.460013,80.6924849 C361.017713,80.6924849 360.627953,80.4019248 360.501651,79.9780413 L360.501651,79.9780413 L338.269331,5.36367533 C338.078271,4.72245254 338.558611,4.07811895 339.227693,4.07811895 L339.227693,4.07811895 Z M530.623265,4.07811895 C531.17555,4.07811895 531.623265,4.5258342 531.623265,5.07811895 L531.623265,5.07811895 L531.623,31.695 L545.443446,4.62344601 C545.595312,4.3259556 545.884025,4.12646132 546.210219,4.08580198 L546.210219,4.08580198 L546.334104,4.07811895 L570.2462,4.07811895 C571.027591,4.07811895 571.507088,4.93412276 571.098943,5.60044936 L571.098943,5.60044936 L549.781,40.402 L573.86232,79.1647862 C574.25546,79.7976197 573.84278,80.6068176 573.128159,80.6861553 L573.128159,80.6861553 L573.012888,80.6924849 L547.915069,80.6924849 C547.546047,80.6924849 547.207016,80.4892524 547.033096,80.1637843 L547.033096,80.1637843 L531.623,51.326 L531.623265,79.6924849 C531.623265,80.2053207 531.237225,80.6279921 530.739886,80.6857572 L530.739886,80.6857572 L530.623265,80.6924849 L511.256444,80.6924849 C510.704159,80.6924849 510.256444,80.2447697 510.256444,79.6924849 L510.256444,79.6924849 L510.256444,5.07811895 C510.256444,4.5258342 510.704159,4.07811895 511.256444,4.07811895 L511.256444,4.07811895 Z M597.999,6.078 L580.633,6.078 L580.633,78.692 L597.999,78.692 L597.999,6.078 Z M358.715,6.078 L340.569,6.078 L362.205,78.692 L378.512,78.692 L391.92798,36.1470967 C392.209191,35.2552645 393.428615,35.2164892 393.79141,36.0307708 L393.79141,36.0307708 L393.835404,36.1470967 L407.251,78.692 L423.558,78.692 L445.194,6.078 L427.047,6.078 L414.400502,53.528237 C414.155416,54.4477397 412.909497,54.5226257 412.53023,53.7001213 L412.53023,53.7001213 L412.484058,53.5823943 L396.9,6.078 L388.862,6.078 L373.279326,53.5823943 C372.982703,54.4865887 371.734544,54.4909939 371.402331,53.6483836 L371.402331,53.6483836 L371.362882,53.528237 L358.715,6.078 Z M529.623,6.078 L512.256,6.078 L512.256,78.692 L529.623,78.692 L529.623265,47.3332042 C529.623265,46.3326246 530.90982,45.971951 531.444781,46.7615935 L531.444781,46.7615935 L531.505238,46.8619048 L548.514,78.692 L571.214,78.692 L547.75731,40.9338397 C547.579925,40.6483042 547.559203,40.2955336 547.695518,39.9941774 L547.695518,39.9941774 L547.753998,39.8838106 L568.46,6.078 L546.945,6.078 L531.513924,36.3087439 C531.054572,37.2085669 529.730569,36.9290227 529.629402,35.9721186 L529.629402,35.9721186 L529.623265,35.854071 L529.623,6.078 Z M24.6156642,49.8175749 L21.366,49.817 L21.366,63.65 L24.6156642,63.6508621 C29.3263363,63.6508621 32.6587951,63.0526415 34.5784544,61.9111396 C36.371295,60.8450489 37.2514871,59.1646741 37.2514871,56.7342185 C37.2514871,54.3037628 36.371295,52.623388 34.5784544,51.5572973 C32.7249902,50.4551576 29.5544811,49.8594774 25.0980574,49.8197066 L24.6156642,49.8175749 Z M99.217,30.172 L91.931,50.984 L106.502,50.984 L99.217,30.172 Z M165.037,21.02 L165.037,37.426 L167.692994,37.4269801 C171.309483,37.4269801 174.028966,36.6925401 175.874367,35.2617063 C177.661599,33.875974 178.550231,31.8950928 178.550231,29.2238819 C178.550231,26.5526711 177.661599,24.5717899 175.874367,23.1860575 C174.102782,21.8124571 171.525643,21.0806532 168.122669,21.0243066 L167.692994,21.0207837 L165.037,21.02 Z M23.9239921,20.9218257 L21.366,20.921 L21.366,33.369 L23.9239921,33.3697003 C29.476025,33.3697003 32.0145406,31.3524317 32.0145406,27.145763 C32.0145406,23.021578 29.5745986,21.001776 24.24711,20.9241537 L23.9239921,20.9218257 Z"></path>
            </g>
        </g>
        <g id="Group" transform="translate(250.000000, -5.000000)" fill="#000000" fill-rule="nonzero">
            <g id="Combined-Shape">
                <path d="M49.9592988,20 C55.050117,20 59.7614344,21.0428208 64.0812456,23.1289952 C68.3889285,25.2093125 72.09788,28.0931364 75.2009935,31.7742158 C78.2928498,35.4419414 80.6994578,39.7329216 82.4208487,44.6412383 C84.1409153,49.5457787 85,54.8334611 85,60.5 C85,66.1665389 84.1409153,71.4542213 82.4208487,76.3587617 C80.6994578,81.2670784 78.2928498,85.5580586 75.2009935,89.2257842 C72.09788,92.9068636 68.3889285,95.7906875 64.0812456,97.8710048 C59.7614344,99.9571792 55.050117,101 49.9592988,101 C44.8139502,101 40.0882311,99.9570954 35.7943027,97.8698671 C31.5132901,95.788917 27.8312893,92.9042773 24.7554312,89.2223594 C21.6920464,85.5553723 19.3000249,81.2656034 17.5791513,76.3587617 C15.8590847,71.4542213 15,66.1665389 15,60.5 C15,54.8334611 15.8590847,49.5457787 17.5791513,44.6412383 C19.3000249,39.7343966 21.6920464,35.4446277 24.7554312,31.7776406 C27.8312893,28.0957227 31.5132901,25.211083 35.7943027,23.1301329 C40.0882311,21.0429046 44.8139502,20 49.9592988,20 Z M49.9592988,22 C45.1087691,22 40.6825771,22.9777642 36.6686549,24.9288848 C32.642732,26.8858387 29.1855994,29.5941132 26.2903159,33.0598765 C23.3854456,36.5371158 21.1103747,40.6157002 19.4664504,45.3031311 C17.8233278,49.9882758 17,55.0520516 17,60.5 C17,65.9479484 17.8233278,71.0117242 19.4664504,75.6968689 C21.1103747,80.3842998 23.3854456,84.4628842 26.2903159,87.9401235 C29.1855994,91.4058868 32.642732,94.1141613 36.6686549,96.0711152 C40.6825771,98.0222358 45.1087691,99 49.9592988,99 C54.7553209,99 59.1688511,98.022345 63.2114944,96.0700237 C67.2650657,94.112425 70.7495353,91.4033131 73.671838,87.9367212 C76.6025514,84.460152 78.8901675,80.3827538 80.5335496,75.6968689 C82.1766722,71.0117242 83,65.9479484 83,60.5 C83,55.0520516 82.1766722,49.9882758 80.5335496,45.3031311 C78.8901675,40.6172462 76.6025514,36.539848 73.671838,33.0632788 C70.7495353,29.5966869 67.2650657,26.887575 63.2114944,24.9299763 C59.1688511,22.977655 54.7553209,22 49.9592988,22 Z M62.3847024,78.028034 C62.709827,78.4744781 62.6114782,79.0999583 62.165034,79.4250829 C57.310814,82.9601873 53.18068,85.0087924 49.7378035,85.5540905 C47.9955992,85.8300285 46.4448507,85.6128679 45.1149157,85.0484137 C44.2972194,84.701365 43.7234783,84.3021893 43.3981017,83.9914954 C42.9986692,83.6100873 42.9840575,82.9770909 43.3654656,82.5776584 C43.7468737,82.1782259 44.3798701,82.1636142 44.7793026,82.5450223 C44.9408063,82.6992382 45.3189573,82.9623337 45.8962962,83.2073692 C46.89142,83.6297221 48.0651364,83.7940847 49.4249345,83.5787138 C52.4998285,83.0916984 56.3663444,81.1738517 60.9876534,77.8083656 C61.4340976,77.4832409 62.0595777,77.5815898 62.3847024,78.028034 Z M87.9154627,53.8161094 C90.4028214,55.0872074 92,57.6502455 92,60.5 C92,63.3387658 90.4021078,65.8961405 87.9183761,67.172643 C87.427168,67.4250971 86.8243107,67.2315488 86.5718566,66.7403407 C86.3194025,66.2491326 86.5129508,65.6462753 87.0041589,65.3938212 C88.8282674,64.4563291 90,62.581009 90,60.5 C90,58.4078006 88.8292731,56.5291017 87.0053648,55.5970423 C86.5135738,55.3457256 86.3186307,54.7433179 86.5699473,54.2515269 C86.8212639,53.7597358 87.4236717,53.5647928 87.9154627,53.8161094 Z M12.0843252,53.8161094 C12.5761162,53.5647928 13.178524,53.7597358 13.4298406,54.2515269 C13.6811572,54.7433179 13.4862142,55.3457256 12.9944231,55.5970423 C11.1705148,56.5291017 9.99978791,58.4078006 9.99978791,60.5 C9.99978791,62.581009 11.1715205,64.4563291 12.995629,65.3938212 C13.4868371,65.6462753 13.6803854,66.2491326 13.4279313,66.7403407 C13.1754772,67.2315488 12.5726199,67.4250971 12.0814118,67.172643 C9.59768008,65.8961405 7.99978791,63.3387658 7.99978791,60.5 C7.99978791,57.6502455 9.5969665,55.0872074 12.0843252,53.8161094 Z M50,6 C51.9607394,6 53.2910946,6.66765195 53.92989,7.72447779 C54.291268,7.50913695 54.7143255,7.39243361 55.1988595,7.3934183 L55.3836682,7.39935658 C56.9733257,7.497137 57.8279888,8.322863 58.0516966,9.52312904 L58.079,9.701 L58.1668314,9.66507989 C58.7147263,9.45772932 59.3708306,9.42763195 60.1228529,9.61929819 L60.3128497,9.67186059 C61.0772403,9.89974334 61.6267841,10.2549408 61.9818604,10.6992559 L62.033,10.768 L62.0788827,10.6410362 L62.1698022,10.4247103 L62.270423,10.2188025 C62.9682875,8.89209145 64.2679467,8.35496406 65.8551099,8.82113925 C66.7668024,9.08891789 67.3966748,9.54073357 67.7747836,10.1199475 C69.0320722,9.59725979 70.3563967,9.58475034 71.4311444,10.2901721 C73.0720119,11.3671725 73.3249333,13.3996134 72.5151766,15.4305339 C72.9245269,15.9775707 73.0991673,16.5906127 73.0649109,17.2183534 L73.056,17.313 L73.1632242,17.1893695 C74.4707968,15.7108258 76.285427,15.2372795 77.9859928,16.4648201 L78.1450677,16.5849069 C79.4866332,17.6425268 79.905388,19.0103609 79.5814145,20.3501953 C80.4526687,21.9406945 79.8091635,23.8150916 77.883459,24.7179294 C77.3945068,24.9471672 76.852722,25.1049292 76.2654085,25.1899917 L76.214,25.195 L76.2283131,25.2489167 C76.5950747,26.5425282 77.265316,27.8703296 78.2319131,29.0746831 L78.4602314,29.3503477 C78.8190245,29.7702119 78.7695166,30.4014384 78.3496523,30.7602314 C77.9297881,31.1190245 77.2985616,31.0695166 76.9397686,30.6496523 C76.2288477,29.8177237 75.639465,28.9250138 75.1748729,28.0081146 L74.7223985,27.7930581 C73.3819471,27.1607262 72.4450817,26.1529315 71.905266,24.9465668 L71.87,24.863 L71.7497791,24.8434579 C71.0696386,24.7156158 70.4130747,24.4709508 69.8081659,24.0993548 L69.5838013,23.9540366 C69.3683912,23.8071104 69.1629154,23.6488937 68.9676767,23.4807261 C68.7181206,23.3500416 68.4654423,23.2118248 68.211013,23.0662569 L67.8564401,22.8592929 C67.2541685,22.5007979 66.7158613,22.11807 66.2407205,21.7156814 C65.9473558,21.6671105 65.6596494,21.5906012 65.3826369,21.4854831 L65.1682105,21.3973974 C64.8154395,21.2410956 64.4776249,20.9864178 64.1606036,20.6533519 C63.6677113,20.5877406 63.1723216,20.4671788 62.6783617,20.2900173 L62.4132064,20.1893963 C61.874162,19.9735399 61.3662784,19.7286252 60.8931845,19.4599858 C60.5390134,19.4798947 60.1965638,19.4468073 59.8733198,19.3551302 L59.6846482,19.2941097 C59.2364163,19.1307052 58.8206355,18.8741377 58.4444138,18.5456159 C58.0106046,18.6197367 57.5707786,18.6447027 57.1353844,18.6159397 L56.8864534,18.5935327 C55.3610875,18.4192051 53.9547542,18.1520892 52.6790143,17.8043546 C52.2924443,17.9363159 51.9038307,18.0082174 51.5216792,18.0126974 L51.3189055,18.0086634 C50.8414953,17.9838497 50.3686224,17.8588446 49.9170368,17.6545431 L49.81,17.603 L49.6822603,17.6558511 C49.1666589,17.8540239 48.6152135,17.9840643 48.0402216,18.0325523 L47.7923907,18.0483007 C47.0759464,18.0789972 46.3985582,18.0366263 45.7653191,17.9284438 C45.2322976,18.1104148 44.6833915,18.2698521 44.1229869,18.4033295 C43.975068,18.4543442 43.8263422,18.4940937 43.67638,18.5210979 L43.4901601,18.5479535 L43.4433934,18.5512259 C43.4410474,18.5516886 43.4387012,18.5521507 43.4363548,18.5526125 L43.0421786,18.6255497 C42.405332,18.7359308 41.7748749,18.8256381 41.152696,18.8952906 C40.9730599,18.998393 40.7888741,19.0869084 40.6016449,19.1607719 L40.3911272,19.2371647 C39.6570304,19.4804046 38.8692381,19.4368956 38.0788323,19.1674185 L37.885,19.096 L37.7774377,19.2410678 C37.2030369,19.9842966 36.528949,20.5614215 35.7809341,20.894966 L35.5751165,20.9798352 C35.0470511,21.1800454 34.515407,21.3238611 33.9879537,21.4143781 C33.4903927,21.8729802 32.9323911,22.3010546 32.3165558,22.6896295 L32.0397362,22.8592929 C31.7753579,23.0166609 31.5128314,23.1661751 31.2523888,23.3078738 C31.1964897,23.3540852 31.1387821,23.3983707 31.0801827,23.4415503 L30.8608622,23.5951627 C30.3520344,23.9335159 29.803263,24.1550131 29.2329918,24.2705268 C28.8337933,24.4313219 28.4424948,24.5730721 28.0591321,24.6950532 L28.0941184,24.593648 C27.8508654,25.3403502 27.5059246,25.9841316 27.0566413,26.4706389 L26.903012,26.6269084 C26.4981568,27.0132417 25.8453776,27.3679658 25.2177199,27.5375155 L25.031545,27.5814743 C24.5892338,28.540451 24.0118184,29.4794412 23.3029407,30.357472 L23.0602314,30.6496523 C22.7014384,31.0695166 22.0702119,31.1190245 21.6503477,30.7602314 C21.2304834,30.4014384 21.1809755,29.7702119 21.5397686,29.3503477 C22.5389404,28.181104 23.2498407,26.8797402 23.665616,25.5979089 L23.783,25.204 L23.661334,25.1892853 C23.1621657,25.1159969 22.6967757,24.9891921 22.2696896,24.8096199 L22.0593595,24.71544 C19.6784097,23.5821944 19.3118718,20.9383986 21.3598156,19.2317787 L21.3901828,19.2064174 C20.7951029,17.457606 21.1540506,15.7111727 22.7458559,14.5325437 C23.8422221,13.7207554 25.0143677,13.7078506 25.9909268,14.3987711 C24.8918066,12.3643818 25.6451766,10.1055536 28.3863082,8.59109346 C30.1067403,7.64056412 31.8178008,7.5559375 33.2640356,8.13936979 C33.728622,7.77464385 34.3426596,7.52050653 35.1144692,7.40793933 C36.616743,7.18883505 37.7802171,7.63665872 38.5774738,8.54589948 L38.674,8.662 L38.8417016,8.60857386 L39.1964727,8.50842937 C39.9855373,8.30268191 40.7020503,8.22629035 41.3390952,8.2642526 L41.392,8.268 L41.4157371,8.24201497 C42.0092706,7.57974206 42.8018456,7.10988134 43.757895,6.93527635 L43.965252,6.90241769 C44.8274623,6.78627819 45.561486,6.86612768 46.1658824,7.10656584 C47.1318556,6.4131994 48.4492825,6 50,6 Z M22.3654583,21.0353923 L22.3342085,21.0713228 C21.7710447,21.7519202 21.9837584,22.46447 22.9188928,22.90956 C23.2292464,23.057277 23.5844656,23.1608917 23.9799604,23.2179722 L24.098,23.232 L24.0990623,23.2135866 C24.1033841,23.0753815 24.1037039,22.9387271 24.100011,22.8038576 C23.8053729,22.578318 23.5229006,22.3302525 23.2531712,22.0620224 L23.0645176,21.8689234 C22.8078782,21.5985646 22.5744075,21.3198063 22.3654583,21.0353923 Z M73.6866925,20.2838579 C73.4022218,21.1333175 73.3006099,21.9764977 73.3790504,22.7538955 L73.399,22.92 L73.5630873,22.9015711 C73.6750482,22.8863864 73.78714,22.8673505 73.8991165,22.8445272 L73.8982745,23.0708117 C73.8953789,22.7620116 73.908329,22.4582085 73.9372623,22.1609488 L73.9715285,21.8659274 C74.2811596,19.5773497 75.6486162,18.1401774 77.2746259,18.5108982 C77.1726706,18.3872421 77.0500682,18.268423 76.9068691,18.1555324 C75.779972,17.2671459 74.4055299,18.1373331 73.6866925,20.2838579 Z M71.734,19.825 L71.6608439,19.8984121 L71.505144,20.0417041 C71.0215961,20.4719948 70.473754,20.8346723 69.8923479,21.1159874 L69.592,21.251 L69.6307418,21.3013121 C69.7797653,21.4853428 69.9412934,21.6599221 70.1147966,21.8228094 C70.5402958,22.0375692 70.9535264,22.2271466 71.3551951,22.3924904 L71.363,22.65 C71.3149783,21.7554213 71.4311037,20.8237053 71.7100872,19.9003398 L71.734,19.825 Z M28.472,20.226 L28.4752769,20.2541 C28.5341645,20.8799599 28.5498242,21.500339 28.5214692,22.0991326 L28.506,22.345 L28.5750984,22.3409995 L28.7091641,22.3234473 C29.1678499,22.1280407 29.6416246,21.9012069 30.1284562,21.6418697 C30.2233194,21.5597253 30.3131868,21.4730302 30.3993923,21.3817823 L30.53,21.235 L30.4426687,21.2105941 C29.7872698,21.0094512 29.1764439,20.7168443 28.6319526,20.3414442 L28.472,20.226 Z M75.9807849,21.9485207 L76.1032662,21.8640078 L76.1032662,21.8640078 L76.2947636,21.719151 C76.7169037,21.3861802 77.0440036,21.0425147 77.2726737,20.699418 C76.6526012,20.2452371 76.1975676,20.5922942 75.9807849,21.9485207 Z M23.9359941,16.1398928 C23.198088,16.6862645 22.9798385,17.5191654 23.2495405,18.4531786 C24.5960746,18.4654534 25.6840523,19.7459738 26.000684,21.6799282 C26.1409054,21.7629739 26.2825489,21.8380206 26.4246135,21.9057548 L26.519,21.948 L26.5234203,21.859011 C26.5517099,20.9864051 26.4751179,20.0376066 26.2829653,19.1080211 L26.2218421,18.8298172 C25.9401109,17.6200848 25.4950686,16.6604077 25.0147847,16.1837282 C24.6547208,15.8263664 24.3921149,15.8021648 23.9359941,16.1398928 Z M28.4699632,16.8504425 L28.4756848,16.9089664 C28.5253596,17.3578712 28.7881004,17.8263056 29.2562613,18.2779368 C29.7838829,18.7869293 30.4672797,19.1583246 31.2412865,19.3597353 L31.509,19.421 L31.5630897,19.2408543 C31.6507943,18.9240489 31.7128183,18.5974762 31.7476152,18.2678107 C30.5097296,17.9067959 29.4067761,17.4304565 28.4699632,16.8504425 Z M68.2848046,12.0881082 L68.1890101,12.1394591 C68.0679006,13.2175083 67.5163665,14.4346404 66.6154035,15.638227 C66.2823872,16.0830998 65.9220812,16.5036316 65.5433233,16.8916625 C65.5972821,17.3955654 65.7527361,17.8963985 66.012599,18.3860007 L66.139,18.609 L66.3527187,18.5610373 L66.4258066,18.5403541 C66.3870959,18.1362931 66.3832837,17.7327178 66.415778,17.3358585 L66.4423407,17.0763542 C66.7553163,14.5337327 68.5887577,13.1526491 70.8353745,14.1517825 C71.0917865,13.1726181 70.9207706,12.3475115 70.3337026,11.9621833 C69.8193803,11.6246026 69.0555449,11.6980214 68.2848046,12.0881082 Z M68.4273592,17.3206935 L68.4056003,17.56791 C68.7987644,17.2742566 69.168653,16.9285803 69.5083978,16.5359288 L69.6722959,16.3399584 C69.7761405,16.2115082 69.8736096,16.0824332 69.9647222,15.9532385 C69.0825189,15.5915239 68.5812399,16.0705624 68.4273592,17.3206935 Z M62.1367879,16.532 L62.2314266,16.4266312 C61.9738184,16.7320808 61.6777749,17.0141623 61.3525304,17.2673024 L61.259,17.336 L61.3128957,17.3734001 C61.5415999,17.3047285 61.7882131,17.2012411 62.0454349,17.0668396 L62.251,16.953 L62.226998,16.8698375 L62.1367879,16.532 Z M29.3534966,10.3416781 C27.4645458,11.3853131 27.0430565,12.6261101 28.0026177,13.8606516 L28.0346786,13.8367912 L28.0346786,13.8367912 L28.2195266,13.7062017 C30.8717183,11.9189924 33.1645319,13.3797946 33.6745295,16.3747751 L33.7201743,16.6952643 C33.9653743,16.7437512 34.2155469,16.7878599 34.470409,16.8274781 L34.717,16.863 L34.7617938,16.7343511 C34.2737705,16.1684155 33.8217843,15.5336605 33.423961,14.8516533 L33.2857598,14.6088894 C32.3277511,12.8840903 31.9326709,11.2044646 32.2061641,9.89530999 C31.348302,9.65587841 30.3673653,9.78152116 29.3534966,10.3416781 Z M56.402,14.725 L56.3743486,14.7653897 C56.1073248,15.1415659 55.8208116,15.496369 55.519724,15.8234602 L55.347,16.006 L55.3671878,16.0332967 C55.5273476,16.2344491 55.6921013,16.3691119 55.8517948,16.4223758 L55.9311752,16.4421554 C56.1323299,16.4749505 56.4027217,16.4238015 56.7126315,16.3048527 L56.859,16.243 L56.8139211,16.1339213 C56.6595229,15.7442154 56.5345187,15.3361163 56.441875,14.9184749 L56.402,14.725 Z M37.0534273,15.5476412 L37.0523859,15.5676348 C37.0320516,15.7561208 37.0053389,15.9442027 36.9722789,16.1316268 L37.146,16.291 L37.2210738,16.1009365 L37.317,15.829 L37.2698279,15.7813868 C37.1960009,15.7044676 37.1238274,15.6265271 37.0534273,15.5476412 Z M40.3506092,10.3043302 L40.3162382,10.3096422 C40.1876801,10.3315011 40.0537425,10.3586156 39.9143312,10.3910564 L39.7010972,10.4437211 L39.569,10.479 L39.5803404,10.5182523 C39.7916376,11.300806 39.8782378,12.1956805 39.8350252,13.1645296 L39.8215146,13.4082609 C39.7885095,13.9072328 39.7242632,14.4039008 39.6311949,14.8909887 L39.575,15.161 L39.6290215,15.203837 C40.1196702,15.5732398 40.6508761,15.8870846 41.1775035,16.1207556 L41.297,16.171 L41.3574909,16.0991078 C41.4450922,15.9893896 41.530235,15.8746452 41.61248,15.7555635 L41.652,15.695 L41.6052346,15.6419068 C41.041274,14.9609795 40.6314162,14.1597674 40.3975118,13.269399 L40.342714,13.0449675 C40.1284526,12.0964184 40.1405765,11.1554252 40.3506092,10.3043302 Z M29.7331547,15.1333926 L29.6050393,15.2005788 C30.1807762,15.5487195 30.8373266,15.8538513 31.563182,16.111408 C31.2447096,15.0443266 30.6334656,14.6946999 29.7331547,15.1333926 Z M52.706,15.06 L52.6284167,15.1987152 C52.5411658,15.3446743 52.4470004,15.4868934 52.3463403,15.6249145 C52.4116532,15.6460074 52.4789045,15.6670573 52.5466765,15.6878668 C52.6169812,15.6502793 52.6877659,15.6084427 52.7589689,15.5635589 L52.85,15.503 L52.7712808,15.2693166 L52.706,15.06 Z M44.8072611,12.3527822 L44.7961995,12.6222422 L44.7961995,12.6222422 L44.7793292,12.8276331 C44.7042909,13.6033605 44.50298,14.3905562 44.2021202,15.138055 L44.156,15.246 L44.224794,15.2897499 C44.3441599,15.3615073 44.4684386,15.4287252 44.5975524,15.4911947 L44.652,15.516 L44.7515037,15.3853233 C45.0804522,14.9294899 45.3900361,14.3682528 45.6427413,13.7504188 C45.293164,13.3044267 45.0142609,12.8374932 44.8072611,12.3527822 Z M58.8648225,14.2470057 C58.8882634,14.40506 58.929243,14.5668608 58.9871496,14.7309942 C59.157641,14.5666485 59.3193234,14.3928203 59.4714026,14.2130106 L59.622623,14.0281511 C59.7815232,13.827126 59.9176197,13.6394529 60.0312152,13.4645789 C59.0713712,13.1980079 58.7566581,13.5176895 58.8648225,14.2470057 Z M64.0404817,11.1498729 C63.7259577,11.7478148 63.6071654,12.7932175 63.7248358,14.0474228 C63.7430692,14.2417661 63.7665213,14.4365077 63.7946889,14.6306185 C63.9007587,14.2838715 64.0372332,13.9395327 64.2036536,13.5987409 L64.3134013,13.3827389 C64.753898,12.5483932 65.3432869,11.8164985 66.0129364,11.232009 C65.8665463,11.0040157 65.6250768,10.8380595 65.2914867,10.7400788 C64.6114329,10.5403361 64.291569,10.6725305 64.0404817,11.1498729 Z M48.7219958,13.4403672 C48.7875699,13.6540317 48.8753983,13.8645892 48.9810007,14.0676588 L49.1387373,13.9536394 C49.8816323,13.4039683 50.5272324,12.8025763 51.0504866,12.1727591 C50.875404,12.0268214 50.6231578,11.9377546 50.2929139,11.9091066 C48.741134,11.7744927 48.3666733,12.2825957 48.7219958,13.4403672 Z M55.2608796,9.39558376 C54.6530631,9.35819675 54.1458666,10.6002793 54.2904388,12.5955548 C54.3189838,12.9895109 54.3719495,13.3700801 54.4437488,13.7286343 L54.488,13.938 L54.5167064,13.9047892 C54.8169796,13.5190932 55.0971862,13.0956367 55.3417304,12.6476962 L55.4609584,12.4217471 C56.436595,10.5070828 56.2890809,9.4588288 55.2608796,9.39558376 Z M34.1708733,11.3983008 L34.1894482,11.5122084 C34.3042886,12.1039459 34.5750027,12.8019765 35.0057262,13.5862764 C34.9764952,13.406139 34.9373539,13.2267614 34.8903214,13.0486713 L34.8219722,12.8088691 C34.6584844,12.274849 34.4381588,11.8021181 34.1708733,11.3983008 Z M42.324,10.66 L42.2870825,10.7988012 C42.1543284,11.3405461 42.1478072,11.9590291 42.2935638,12.6043029 C42.3540261,12.8719731 42.4367826,13.128588 42.5412117,13.3724764 L42.622,13.55 L42.6334432,13.5117775 C42.6890598,13.292862 42.7327189,13.0727161 42.7629376,12.8536655 L42.7886213,12.6350662 C42.875617,11.7357261 42.7396142,11.0723991 42.3408159,10.6748927 L42.324,10.66 Z M37.754,11.47 L37.7403002,11.4882827 C37.4339872,11.9152108 37.4435526,12.4270832 37.7285037,13.028328 L37.828,13.221 L37.8392989,13.0294055 C37.8633139,12.4617242 37.8363213,11.9524347 37.7611521,11.5068802 L37.754,11.47 Z M35.4031122,9.38700102 C35.3154727,9.39978311 35.2322732,9.41699904 35.1535354,9.43854415 C35.4615975,9.761978 35.7401953,10.1272937 35.9847878,10.531041 C36.1727828,10.2300828 36.4193704,9.94900677 36.7241732,9.6927788 L36.772,9.654 L36.7546643,9.64111477 C36.388161,9.39933866 35.9348926,9.30944169 35.4031122,9.38700102 Z M50,8 C49.06869,8 48.2983351,8.17628088 47.7127172,8.48101277 C47.9545932,8.91400714 48.1165198,9.42007431 48.1985142,9.98240936 L48.226,10.212 L48.2482424,10.2029188 C48.7908657,9.97002297 49.4610411,9.85922904 50.2481913,9.90130198 L50.4657609,9.91658961 C51.131829,9.97436975 51.688173,10.1698553 52.1279316,10.4680251 C52.8143074,8.88232784 52.1419191,8 50,8 Z M44.2322403,8.8845169 C44.0248736,8.91244914 43.8297865,8.96784343 43.6486459,9.04750317 L43.566,9.087 L43.6460447,9.15633872 C43.9594107,9.44041173 44.2126578,9.78594725 44.402,10.1847334 C44.4311769,9.7158325 44.5398261,9.27007184 44.7200861,8.85626381 C44.5687993,8.85174885 44.406101,8.8610979 44.2322403,8.8845169 Z"></path>
            </g>
        </g>
    </g>
</svg>
