<svg width="60" height="90" viewBox="0 0 60 90" fill="none" xmlns="http://www.w3.org/2000/svg">
<path fill-rule="evenodd" clip-rule="evenodd" d="M54.7656 9.15235C54.9943 10.8532 55 13.1296 55 16.5V73.5C55 76.8705 54.9943 79.1468 54.7656 80.8477C54.5466 82.4766 54.1649 83.1984 53.6816 83.6816C53.1984 84.1648 52.4766 84.5466 50.8477 84.7656C49.1468 84.9943 46.8705 85 43.5 85H16.5C13.1296 85 10.8532 84.9943 9.15235 84.7656C7.52337 84.5466 6.80157 84.1648 6.31837 83.6816C5.83516 83.1984 5.45339 82.4766 5.23438 80.8477C5.00571 79.1468 5.00001 76.8705 5.00001 73.5V16.5C5.00001 13.1296 5.00571 10.8532 5.23438 9.15235C5.45339 7.52338 5.83516 6.80157 6.31837 6.31837C6.80157 5.83516 7.52337 5.45339 9.15235 5.23438C10.8532 5.00571 13.1296 5.00001 16.5 5.00001H43.5C46.8705 5.00001 49.1468 5.00571 50.8477 5.23438C52.4766 5.45339 53.1984 5.83516 53.6816 6.31837C54.1649 6.80157 54.5466 7.52338 54.7656 9.15235ZM60 73.6811L60 73.5V16.5L60 16.3189C60.0001 13.171 60.0002 10.5582 59.7217 8.48634C59.4281 6.30292 58.7848 4.34928 57.2178 2.78223C55.6507 1.21519 53.6971 0.571881 51.5137 0.278328C49.4418 -0.000181206 46.829 -9.72809e-05 43.6811 3.83468e-06L43.5 7.70634e-06H16.5L16.3189 3.83442e-06C13.171 -9.72852e-05 10.5582 -0.000181181 8.48634 0.278328C6.30292 0.571881 4.34928 1.21519 2.78223 2.78223C1.21519 4.34928 0.571881 6.30292 0.278328 8.48634C-0.000181494 10.5582 -9.75647e-05 13.171 3.85101e-06 16.3189L7.42729e-06 16.5V73.5L3.85101e-06 73.6811C-9.75597e-05 76.8291 -0.00018146 79.4418 0.278328 81.5137C0.571881 83.6971 1.21519 85.6507 2.78223 87.2178C4.34928 88.7848 6.30292 89.4281 8.48634 89.7217C10.5582 90.0002 13.171 90.0001 16.319 90H16.5H43.5H43.681C46.829 90.0001 49.4418 90.0002 51.5137 89.7217C53.6971 89.4281 55.6507 88.7848 57.2178 87.2178C58.7848 85.6507 59.4281 83.6971 59.7217 81.5137C60.0002 79.4418 60.0001 76.8291 60 73.6811ZM30 75.5C31.933 75.5 33.5 73.933 33.5 72C33.5 70.067 31.933 68.5 30 68.5C28.067 68.5 26.5 70.067 26.5 72C26.5 73.933 28.067 75.5 30 75.5Z" fill="#000000"/>
</svg>
