<svg width="80" height="100" viewBox="0 0 80 100" fill="none" xmlns="http://www.w3.org/2000/svg">
<path fill-rule="evenodd" clip-rule="evenodd" d="M75 16.5C75 13.1296 74.9943 10.8532 74.7656 9.15235C74.5466 7.52338 74.1648 6.80157 73.6816 6.31837C73.1984 5.83516 72.4766 5.45339 70.8477 5.23438C69.1468 5.00571 66.8705 5.00001 63.5 5.00001H16.5C13.1296 5.00001 10.8532 5.00571 9.15235 5.23438C7.52337 5.45339 6.80157 5.83516 6.31837 6.31837C5.83516 6.80157 5.45339 7.52338 5.23438 9.15235C5.00571 10.8532 5.00001 13.1296 5.00001 16.5V74H75V16.5ZM80 74V16.5V16.3188C80.0001 13.1709 80.0002 10.5582 79.7217 8.48634C79.4281 6.30292 78.7848 4.34928 77.2178 2.78223C75.6507 1.21519 73.6971 0.571881 71.5137 0.278328C69.4418 -0.000181206 66.8291 -9.72809e-05 63.6811 3.83468e-06L63.5 7.70634e-06H16.5L16.3189 3.83442e-06C13.171 -9.72852e-05 10.5582 -0.000181181 8.48634 0.278328C6.30292 0.571881 4.34928 1.21519 2.78223 2.78223C1.21519 4.34928 0.571881 6.30292 0.278328 8.48634C-0.000181497 10.5582 -9.75669e-05 13.171 3.85114e-06 16.3189L7.42742e-06 16.5L3.85114e-06 74V79L7.42742e-06 83.5L3.85114e-06 83.6811C-9.75595e-05 86.8291 -0.00018146 89.4418 0.278328 91.5137C0.571881 93.6971 1.21519 95.6507 2.78223 97.2178C4.34928 98.7848 6.30292 99.4281 8.48634 99.7217C10.5582 100 13.171 100 16.319 100H16.5H63.5H63.681C66.829 100 69.4418 100 71.5137 99.7217C73.6971 99.4281 75.6507 98.7848 77.2178 97.2178C78.7848 95.6507 79.4281 93.6971 79.7217 91.5137C80.0002 89.4419 80.0001 86.8291 80 83.6812V83.5V79V74ZM75 79H5.00001V83.5C5.00001 86.8705 5.00571 89.1468 5.23438 90.8477C5.45339 92.4766 5.83516 93.1984 6.31837 93.6816C6.80157 94.1648 7.52337 94.5466 9.15235 94.7656C10.8532 94.9943 13.1296 95 16.5 95H63.5C66.8705 95 69.1468 94.9943 70.8477 94.7656C72.4766 94.5466 73.1984 94.1648 73.6816 93.6816C74.1648 93.1984 74.5466 92.4766 74.7656 90.8477C74.9943 89.1468 75 86.8705 75 83.5V79ZM43.4999 87C43.4999 88.933 41.9329 90.5 39.9999 90.5C38.0669 90.5 36.4999 88.933 36.4999 87C36.4999 85.067 38.0669 83.5 39.9999 83.5C41.9329 83.5 43.4999 85.067 43.4999 87Z" fill="#000000"/>
</svg>
